{
	"patcher" : 	{
		"fileversion" : 1,
		"appversion" : 		{
			"major" : 8,
			"minor" : 3,
			"revision" : 2,
			"architecture" : "x64",
			"modernui" : 1
		}
,
		"classnamespace" : "box",
		"rect" : [ 58.0, 87.0, 596.0, 732.0 ],
		"bglocked" : 0,
		"openinpresentation" : 0,
		"default_fontsize" : 12.0,
		"default_fontface" : 0,
		"default_fontname" : "Arial",
		"gridonopen" : 1,
		"gridsize" : [ 15.0, 15.0 ],
		"gridsnaponopen" : 1,
		"objectsnaponopen" : 1,
		"statusbarvisible" : 2,
		"toolbarvisible" : 1,
		"lefttoolbarpinned" : 0,
		"toptoolbarpinned" : 0,
		"righttoolbarpinned" : 0,
		"bottomtoolbarpinned" : 0,
		"toolbars_unpinned_last_save" : 0,
		"tallnewobj" : 0,
		"boxanimatetime" : 200,
		"enablehscroll" : 1,
		"enablevscroll" : 1,
		"devicewidth" : 0.0,
		"description" : "",
		"digest" : "",
		"tags" : "",
		"style" : "",
		"subpatcher_template" : "",
		"assistshowspatchername" : 0,
		"boxes" : [ 			{
				"box" : 				{
					"fontface" : 0,
					"fontname" : "Arial",
					"fontsize" : 12.0,
					"id" : "obj-71",
					"maxclass" : "number~",
					"mode" : 2,
					"numinlets" : 2,
					"numoutlets" : 2,
					"outlettype" : [ "signal", "float" ],
					"patching_rect" : [ 2.272727072238922, 962.878702938556671, 114.333328187465668, 22.0 ],
					"sig" : 0.0
				}

			}
, 			{
				"box" : 				{
					"id" : "obj-70",
					"maxclass" : "toggle",
					"numinlets" : 1,
					"numoutlets" : 1,
					"outlettype" : [ "int" ],
					"parameter_enable" : 0,
					"patching_rect" : [ 168.939379036426544, 9.848483979701996, 24.0, 24.0 ]
				}

			}
, 			{
				"box" : 				{
					"id" : "obj-67",
					"maxclass" : "message",
					"numinlets" : 2,
					"numoutlets" : 1,
					"outlettype" : [ "" ],
					"patching_rect" : [ 82.575750291347504, 116.666656374931335, 35.0, 22.0 ],
					"text" : "open"
				}

			}
, 			{
				"box" : 				{
					"id" : "obj-65",
					"maxclass" : "newobj",
					"numinlets" : 2,
					"numoutlets" : 1,
					"outlettype" : [ "signal" ],
					"patching_rect" : [ 100.757566869258881, 988.636276423931122, 69.0, 22.0 ],
					"text" : "sfrecord~ 2"
				}

			}
, 			{
				"box" : 				{
					"id" : "obj-64",
					"maxclass" : "message",
					"numinlets" : 2,
					"numoutlets" : 1,
					"outlettype" : [ "" ],
					"patching_rect" : [ 153.000035285949707, 394.81818562746048, 35.0, 22.0 ],
					"text" : "clear"
				}

			}
, 			{
				"box" : 				{
					"id" : "obj-62",
					"maxclass" : "button",
					"numinlets" : 1,
					"numoutlets" : 1,
					"outlettype" : [ "bang" ],
					"parameter_enable" : 0,
					"patching_rect" : [ 494.0, 45.0, 24.0, 24.0 ]
				}

			}
, 			{
				"box" : 				{
					"id" : "obj-58",
					"maxclass" : "message",
					"numinlets" : 2,
					"numoutlets" : 1,
					"outlettype" : [ "" ],
					"patching_rect" : [ 796.0, 114.655175805091858, 103.0, 22.0 ],
					"presentation_linecount" : 2,
					"text" : "9.4, -23.6 340000"
				}

			}
, 			{
				"box" : 				{
					"id" : "obj-59",
					"maxclass" : "newobj",
					"numinlets" : 3,
					"numoutlets" : 2,
					"outlettype" : [ "", "bang" ],
					"patching_rect" : [ 796.0, 144.655175805091858, 41.0, 22.0 ],
					"text" : "line 0."
				}

			}
, 			{
				"box" : 				{
					"id" : "obj-56",
					"maxclass" : "message",
					"numinlets" : 2,
					"numoutlets" : 1,
					"outlettype" : [ "" ],
					"patching_rect" : [ 1073.0, 114.655175805091858, 105.0, 22.0 ],
					"presentation_linecount" : 2,
					"text" : "9.4, -23.6 340000"
				}

			}
, 			{
				"box" : 				{
					"id" : "obj-57",
					"maxclass" : "newobj",
					"numinlets" : 3,
					"numoutlets" : 2,
					"outlettype" : [ "", "bang" ],
					"patching_rect" : [ 1073.0, 144.655175805091858, 41.0, 22.0 ],
					"text" : "line 0."
				}

			}
, 			{
				"box" : 				{
					"id" : "obj-49",
					"maxclass" : "message",
					"numinlets" : 2,
					"numoutlets" : 1,
					"outlettype" : [ "" ],
					"patching_rect" : [ 958.0, 114.655175805091858, 103.0, 22.0 ],
					"presentation_linecount" : 2,
					"text" : "9.4, -23.6 340000"
				}

			}
, 			{
				"box" : 				{
					"id" : "obj-52",
					"maxclass" : "newobj",
					"numinlets" : 3,
					"numoutlets" : 2,
					"outlettype" : [ "", "bang" ],
					"patching_rect" : [ 958.0, 144.655175805091858, 41.0, 22.0 ],
					"text" : "line 0."
				}

			}
, 			{
				"box" : 				{
					"id" : "obj-34",
					"maxclass" : "message",
					"numinlets" : 2,
					"numoutlets" : 1,
					"outlettype" : [ "" ],
					"patching_rect" : [ 496.0, 114.655175805091858, 83.0, 22.0 ],
					"text" : "3, -30 340000"
				}

			}
, 			{
				"box" : 				{
					"id" : "obj-48",
					"maxclass" : "newobj",
					"numinlets" : 3,
					"numoutlets" : 2,
					"outlettype" : [ "", "bang" ],
					"patching_rect" : [ 496.0, 144.655175805091858, 41.0, 22.0 ],
					"text" : "line 0."
				}

			}
, 			{
				"box" : 				{
					"id" : "obj-25",
					"maxclass" : "message",
					"numinlets" : 2,
					"numoutlets" : 1,
					"outlettype" : [ "" ],
					"patching_rect" : [ 386.0, 114.655175805091858, 83.0, 22.0 ],
					"text" : "4, -29 340000"
				}

			}
, 			{
				"box" : 				{
					"id" : "obj-26",
					"maxclass" : "newobj",
					"numinlets" : 3,
					"numoutlets" : 2,
					"outlettype" : [ "", "bang" ],
					"patching_rect" : [ 386.0, 144.655175805091858, 41.0, 22.0 ],
					"text" : "line 0."
				}

			}
, 			{
				"box" : 				{
					"id" : "obj-22",
					"maxclass" : "message",
					"numinlets" : 2,
					"numoutlets" : 1,
					"outlettype" : [ "" ],
					"patching_rect" : [ 599.0, 114.655175805091858, 83.0, 22.0 ],
					"presentation_linecount" : 2,
					"text" : "0, -33 340000"
				}

			}
, 			{
				"box" : 				{
					"id" : "obj-24",
					"maxclass" : "newobj",
					"numinlets" : 3,
					"numoutlets" : 2,
					"outlettype" : [ "", "bang" ],
					"patching_rect" : [ 599.0, 144.655175805091858, 41.0, 22.0 ],
					"text" : "line 0."
				}

			}
, 			{
				"box" : 				{
					"id" : "obj-55",
					"maxclass" : "newobj",
					"numinlets" : 2,
					"numoutlets" : 0,
					"patching_rect" : [ 260.0, 999.137983441352844, 74.0, 22.0 ],
					"text" : "dac~"
				}

			}
, 			{
				"box" : 				{
					"id" : "obj-51",
					"maxclass" : "newobj",
					"numinlets" : 1,
					"numoutlets" : 2,
					"outlettype" : [ "signal", "signal" ],
					"patching_rect" : [ 260.0, 952.97876782920639, 74.0, 22.0 ],
					"text" : "mc.unpack~"
				}

			}
, 			{
				"box" : 				{
					"id" : "obj-50",
					"maxclass" : "message",
					"numinlets" : 2,
					"numoutlets" : 1,
					"outlettype" : [ "" ],
					"patching_rect" : [ 614.124716042211503, 744.86211097240448, 35.0, 22.0 ],
					"text" : "clear"
				}

			}
, 			{
				"box" : 				{
					"id" : "obj-46",
					"maxclass" : "message",
					"numinlets" : 2,
					"numoutlets" : 1,
					"outlettype" : [ "" ],
					"patching_rect" : [ 762.413787722587585, 769.172441601753235, 77.0, 22.0 ],
					"text" : "xyz 2 0.5 0 0"
				}

			}
, 			{
				"box" : 				{
					"id" : "obj-47",
					"maxclass" : "message",
					"numinlets" : 2,
					"numoutlets" : 1,
					"outlettype" : [ "" ],
					"patching_rect" : [ 679.413787722587585, 769.172441601753235, 81.0, 22.0 ],
					"text" : "xyz 1 -0.5 0 0"
				}

			}
, 			{
				"box" : 				{
					"id" : "obj-10",
					"linecount" : 4,
					"maxclass" : "comment",
					"numinlets" : 1,
					"numoutlets" : 0,
					"patching_rect" : [ 741.073280541197732, 865.703486696678169, 192.102872313329726, 60.0 ],
					"text" : "highlight, then press a-key to select all points, use n-key to constrain to radius, then rotate both groups."
				}

			}
, 			{
				"box" : 				{
					"id" : "obj-109",
					"maxclass" : "message",
					"numinlets" : 2,
					"numoutlets" : 1,
					"outlettype" : [ "" ],
					"patching_rect" : [ 653.262353985871187, 744.86211097240448, 42.000001311302185, 21.0 ],
					"style" : "jasch_new",
					"text" : "dump"
				}

			}
, 			{
				"box" : 				{
					"border_color" : [ 0.501960784313725, 0.501960784313725, 0.501960784313725, 1.0 ],
					"centre_color" : [ 0.0, 0.0, 0.0, 0.35 ],
					"constrain" : 2,
					"coord_color" : [ 0.807843137254902, 0.898039215686275, 0.909803921568627, 1.0 ],
					"grid_color" : [ 0.592156862745098, 0.592156862745098, 0.592156862745098, 0.24 ],
					"grid_display" : 1,
					"grid_extend" : 1,
					"grid_unit_d" : 1.0,
					"hi_border_color" : [ 0.843137, 0.639216, 0.388235, 1.0 ],
					"id" : "obj-114",
					"label_color" : [ 0.423529411764706, 0.776470588235294, 0.756862745098039, 1.0 ],
					"maxclass" : "ambimonitor",
					"name_color" : [ 1.0, 1.0, 1.0, 1.0 ],
					"number_font_size" : 9.0,
					"numbers" : 1,
					"numinlets" : 1,
					"numoutlets" : 3,
					"outlettype" : [ "", "", "" ],
					"patching_rect" : [ 614.124716042211503, 854.703490630584724, 120.275277198621779, 120.275277198621779 ],
					"point_color" : [ 1.0, 1.0, 1.0, 0.59 ],
					"prototypename" : "small_light_grey",
					"save_points" : 1,
					"saved_points" : [ "1", 1, -0.5, 0.0, 0.0, -90.0, 0.0, 0.5, 0, 0.0, 0.0, 0.0, 0, 0, "2", 2, 0.5, 0.0, 0.0, 90.0, 0.0, 0.5, 0, 0.0, 0.0, 0.0, 0, 0 ],
					"zoom_scale" : 0.872153186517581
				}

			}
, 			{
				"box" : 				{
					"id" : "obj-44",
					"maxclass" : "message",
					"numinlets" : 2,
					"numoutlets" : 1,
					"outlettype" : [ "" ],
					"patching_rect" : [ 1061.0, 289.0, 90.0, 22.0 ],
					"text" : "xyz 18 0 $1 0.5"
				}

			}
, 			{
				"box" : 				{
					"id" : "obj-45",
					"maxclass" : "message",
					"numinlets" : 2,
					"numoutlets" : 1,
					"outlettype" : [ "" ],
					"patching_rect" : [ 1051.0, 243.0, 87.0, 22.0 ],
					"text" : "xyz 9 -3 $1 0.5"
				}

			}
, 			{
				"box" : 				{
					"id" : "obj-36",
					"maxclass" : "message",
					"numinlets" : 2,
					"numoutlets" : 1,
					"outlettype" : [ "" ],
					"patching_rect" : [ 968.0, 289.0, 90.0, 22.0 ],
					"text" : "xyz 17 0 $1 0.5"
				}

			}
, 			{
				"box" : 				{
					"id" : "obj-37",
					"maxclass" : "message",
					"numinlets" : 2,
					"numoutlets" : 1,
					"outlettype" : [ "" ],
					"patching_rect" : [ 869.0, 289.0, 90.0, 22.0 ],
					"text" : "xyz 16 0 $1 0.5"
				}

			}
, 			{
				"box" : 				{
					"id" : "obj-38",
					"maxclass" : "message",
					"numinlets" : 2,
					"numoutlets" : 1,
					"outlettype" : [ "" ],
					"patching_rect" : [ 770.0, 289.0, 90.0, 22.0 ],
					"text" : "xyz 15 0 $1 0.5"
				}

			}
, 			{
				"box" : 				{
					"id" : "obj-39",
					"maxclass" : "message",
					"numinlets" : 2,
					"numoutlets" : 1,
					"outlettype" : [ "" ],
					"patching_rect" : [ 677.0, 289.0, 100.0, 22.0 ],
					"text" : "xyz 14 5.5 $1 0.5"
				}

			}
, 			{
				"box" : 				{
					"id" : "obj-40",
					"maxclass" : "message",
					"numinlets" : 2,
					"numoutlets" : 1,
					"outlettype" : [ "" ],
					"patching_rect" : [ 580.0, 289.0, 90.0, 22.0 ],
					"text" : "xyz 13 0 $1 0.5"
				}

			}
, 			{
				"box" : 				{
					"id" : "obj-41",
					"maxclass" : "message",
					"numinlets" : 2,
					"numoutlets" : 1,
					"outlettype" : [ "" ],
					"patching_rect" : [ 484.0, 289.0, 94.0, 22.0 ],
					"text" : "xyz 12 -3 $1 0.5"
				}

			}
, 			{
				"box" : 				{
					"id" : "obj-42",
					"maxclass" : "message",
					"numinlets" : 2,
					"numoutlets" : 1,
					"outlettype" : [ "" ],
					"patching_rect" : [ 386.0, 289.0, 89.0, 22.0 ],
					"text" : "xyz 11 0 $1 0.5"
				}

			}
, 			{
				"box" : 				{
					"id" : "obj-43",
					"maxclass" : "message",
					"numinlets" : 2,
					"numoutlets" : 1,
					"outlettype" : [ "" ],
					"patching_rect" : [ 270.0, 289.0, 90.0, 22.0 ],
					"text" : "xyz 10 0 $1 0.5"
				}

			}
, 			{
				"box" : 				{
					"id" : "obj-35",
					"maxclass" : "number",
					"numinlets" : 1,
					"numoutlets" : 2,
					"outlettype" : [ "", "bang" ],
					"parameter_enable" : 0,
					"patching_rect" : [ 624.0, 490.0, 50.0, 22.0 ]
				}

			}
, 			{
				"box" : 				{
					"id" : "obj-33",
					"maxclass" : "message",
					"numinlets" : 2,
					"numoutlets" : 1,
					"outlettype" : [ "" ],
					"patching_rect" : [ 958.0, 243.0, 83.0, 22.0 ],
					"text" : "xyz 8 0 $1 0.5"
				}

			}
, 			{
				"box" : 				{
					"id" : "obj-32",
					"maxclass" : "message",
					"numinlets" : 2,
					"numoutlets" : 1,
					"outlettype" : [ "" ],
					"patching_rect" : [ 859.0, 243.0, 83.0, 22.0 ],
					"text" : "xyz 7 0 $1 0.5"
				}

			}
, 			{
				"box" : 				{
					"id" : "obj-31",
					"maxclass" : "message",
					"numinlets" : 2,
					"numoutlets" : 1,
					"outlettype" : [ "" ],
					"patching_rect" : [ 760.0, 243.0, 83.0, 22.0 ],
					"text" : "xyz 6 0 $1 0.5"
				}

			}
, 			{
				"box" : 				{
					"id" : "obj-30",
					"maxclass" : "message",
					"numinlets" : 2,
					"numoutlets" : 1,
					"outlettype" : [ "" ],
					"patching_rect" : [ 667.0, 243.0, 83.0, 22.0 ],
					"text" : "xyz 5 0 $1 0.5"
				}

			}
, 			{
				"box" : 				{
					"id" : "obj-29",
					"maxclass" : "message",
					"numinlets" : 2,
					"numoutlets" : 1,
					"outlettype" : [ "" ],
					"patching_rect" : [ 570.0, 243.0, 83.0, 22.0 ],
					"text" : "xyz 4 0 $1 0.5"
				}

			}
, 			{
				"box" : 				{
					"id" : "obj-28",
					"maxclass" : "message",
					"numinlets" : 2,
					"numoutlets" : 1,
					"outlettype" : [ "" ],
					"patching_rect" : [ 474.0, 243.0, 83.0, 22.0 ],
					"text" : "xyz 3 0 $1 0.5"
				}

			}
, 			{
				"box" : 				{
					"id" : "obj-27",
					"maxclass" : "message",
					"numinlets" : 2,
					"numoutlets" : 1,
					"outlettype" : [ "" ],
					"patching_rect" : [ 376.0, 243.0, 83.0, 22.0 ],
					"text" : "xyz 2 0 $1 0.5"
				}

			}
, 			{
				"box" : 				{
					"id" : "obj-23",
					"maxclass" : "newobj",
					"numinlets" : 1,
					"numoutlets" : 1,
					"outlettype" : [ "signal" ],
					"patcher" : 					{
						"fileversion" : 1,
						"appversion" : 						{
							"major" : 8,
							"minor" : 3,
							"revision" : 2,
							"architecture" : "x64",
							"modernui" : 1
						}
,
						"classnamespace" : "box",
						"rect" : [ 59.0, 106.0, 640.0, 480.0 ],
						"bglocked" : 0,
						"openinpresentation" : 0,
						"default_fontsize" : 12.0,
						"default_fontface" : 0,
						"default_fontname" : "Arial",
						"gridonopen" : 1,
						"gridsize" : [ 15.0, 15.0 ],
						"gridsnaponopen" : 1,
						"objectsnaponopen" : 1,
						"statusbarvisible" : 2,
						"toolbarvisible" : 1,
						"lefttoolbarpinned" : 0,
						"toptoolbarpinned" : 0,
						"righttoolbarpinned" : 0,
						"bottomtoolbarpinned" : 0,
						"toolbars_unpinned_last_save" : 0,
						"tallnewobj" : 0,
						"boxanimatetime" : 200,
						"enablehscroll" : 1,
						"enablevscroll" : 1,
						"devicewidth" : 0.0,
						"description" : "",
						"digest" : "",
						"tags" : "",
						"style" : "",
						"subpatcher_template" : "",
						"assistshowspatchername" : 0,
						"boxes" : [ 							{
								"box" : 								{
									"comment" : "",
									"id" : "obj-4",
									"index" : 1,
									"maxclass" : "inlet",
									"numinlets" : 0,
									"numoutlets" : 1,
									"outlettype" : [ "" ],
									"patching_rect" : [ 92.0, 155.0, 30.0, 30.0 ]
								}

							}
, 							{
								"box" : 								{
									"id" : "obj-50",
									"maxclass" : "message",
									"numinlets" : 2,
									"numoutlets" : 1,
									"outlettype" : [ "" ],
									"patching_rect" : [ 277.066666642824885, 415.00000125169754, 29.5, 22.0 ],
									"text" : "0"
								}

							}
, 							{
								"box" : 								{
									"id" : "obj-45",
									"maxclass" : "message",
									"numinlets" : 2,
									"numoutlets" : 1,
									"outlettype" : [ "" ],
									"patching_rect" : [ 175.7333333094914, 502.500002801418304, 29.5, 22.0 ],
									"text" : "13"
								}

							}
, 							{
								"box" : 								{
									"id" : "obj-29",
									"maxclass" : "number",
									"numinlets" : 1,
									"numoutlets" : 2,
									"outlettype" : [ "", "bang" ],
									"parameter_enable" : 0,
									"patching_rect" : [ 175.7333333094914, 540.199999511241913, 50.0, 22.0 ]
								}

							}
, 							{
								"box" : 								{
									"id" : "obj-19",
									"maxclass" : "newobj",
									"numinlets" : 1,
									"numoutlets" : 1,
									"outlettype" : [ "" ],
									"patching_rect" : [ 74.399999976158142, 267.9999960064888, 77.0, 22.0 ],
									"text" : "loadmess 38"
								}

							}
, 							{
								"box" : 								{
									"format" : 6,
									"id" : "obj-116",
									"maxclass" : "flonum",
									"numinlets" : 1,
									"numoutlets" : 2,
									"outlettype" : [ "", "bang" ],
									"parameter_enable" : 0,
									"patching_rect" : [ 517.699989855289459, 131.200000822544098, 50.0, 22.0 ]
								}

							}
, 							{
								"box" : 								{
									"id" : "obj-114",
									"maxclass" : "message",
									"numinlets" : 2,
									"numoutlets" : 1,
									"outlettype" : [ "" ],
									"patching_rect" : [ 74.399999976158142, 472.800000548362732, 39.0, 22.0 ],
									"text" : "$1 20"
								}

							}
, 							{
								"box" : 								{
									"id" : "obj-112",
									"maxclass" : "newobj",
									"numinlets" : 3,
									"numoutlets" : 2,
									"outlettype" : [ "", "bang" ],
									"patching_rect" : [ 74.399999976158142, 502.500002801418304, 40.0, 22.0 ],
									"text" : "line"
								}

							}
, 							{
								"box" : 								{
									"fontface" : 0,
									"fontname" : "Arial",
									"fontsize" : 12.0,
									"id" : "obj-101",
									"maxclass" : "number~",
									"mode" : 2,
									"numinlets" : 2,
									"numoutlets" : 2,
									"outlettype" : [ "signal", "float" ],
									"patching_rect" : [ 271.199994599819092, 217.100001394748688, 63.800000369548798, 22.0 ],
									"sig" : 0.0
								}

							}
, 							{
								"box" : 								{
									"id" : "obj-98",
									"maxclass" : "newobj",
									"numinlets" : 1,
									"numoutlets" : 1,
									"outlettype" : [ "" ],
									"patching_rect" : [ 454.399999976158142, 100.0, 80.0, 22.0 ],
									"text" : "loadmess 8.5"
								}

							}
, 							{
								"box" : 								{
									"id" : "obj-99",
									"maxclass" : "newobj",
									"numinlets" : 2,
									"numoutlets" : 1,
									"outlettype" : [ "float" ],
									"patching_rect" : [ 479.733333309491627, 162.200001060962677, 36.0, 22.0 ],
									"text" : "+ 6.5"
								}

							}
, 							{
								"box" : 								{
									"format" : 6,
									"id" : "obj-100",
									"maxclass" : "flonum",
									"numinlets" : 1,
									"numoutlets" : 2,
									"outlettype" : [ "", "bang" ],
									"parameter_enable" : 0,
									"patching_rect" : [ 454.399999976158142, 131.200000822544098, 50.0, 22.0 ]
								}

							}
, 							{
								"box" : 								{
									"id" : "obj-97",
									"maxclass" : "number",
									"numinlets" : 1,
									"numoutlets" : 2,
									"outlettype" : [ "", "bang" ],
									"parameter_enable" : 0,
									"patching_rect" : [ 277.066666642824885, 446.199999928474426, 50.0, 22.0 ]
								}

							}
, 							{
								"box" : 								{
									"id" : "obj-95",
									"maxclass" : "newobj",
									"numinlets" : 2,
									"numoutlets" : 1,
									"outlettype" : [ "float" ],
									"patching_rect" : [ 277.066666642824885, 472.800000548362732, 53.0, 22.0 ],
									"text" : "* 0.0001"
								}

							}
, 							{
								"box" : 								{
									"id" : "obj-94",
									"maxclass" : "newobj",
									"numinlets" : 2,
									"numoutlets" : 1,
									"outlettype" : [ "float" ],
									"patching_rect" : [ 277.066666642824885, 504.80000102519989, 29.5, 22.0 ],
									"text" : "+ 1."
								}

							}
, 							{
								"box" : 								{
									"id" : "obj-71",
									"maxclass" : "newobj",
									"numinlets" : 2,
									"numoutlets" : 1,
									"outlettype" : [ "float" ],
									"patching_rect" : [ 378.399999976158142, 305.199996471405029, 81.0, 22.0 ],
									"text" : "snapshot~ 10"
								}

							}
, 							{
								"box" : 								{
									"id" : "obj-39",
									"maxclass" : "newobj",
									"numinlets" : 1,
									"numoutlets" : 1,
									"outlettype" : [ "FullPacket" ],
									"patcher" : 									{
										"fileversion" : 1,
										"appversion" : 										{
											"major" : 8,
											"minor" : 3,
											"revision" : 2,
											"architecture" : "x64",
											"modernui" : 1
										}
,
										"classnamespace" : "box",
										"rect" : [ 59.0, 106.0, 685.0, 552.0 ],
										"bglocked" : 0,
										"openinpresentation" : 0,
										"default_fontsize" : 12.0,
										"default_fontface" : 0,
										"default_fontname" : "Arial",
										"gridonopen" : 1,
										"gridsize" : [ 15.0, 15.0 ],
										"gridsnaponopen" : 1,
										"objectsnaponopen" : 1,
										"statusbarvisible" : 2,
										"toolbarvisible" : 1,
										"lefttoolbarpinned" : 0,
										"toptoolbarpinned" : 0,
										"righttoolbarpinned" : 0,
										"bottomtoolbarpinned" : 0,
										"toolbars_unpinned_last_save" : 0,
										"tallnewobj" : 0,
										"boxanimatetime" : 200,
										"enablehscroll" : 1,
										"enablevscroll" : 1,
										"devicewidth" : 0.0,
										"description" : "",
										"digest" : "",
										"tags" : "",
										"style" : "",
										"subpatcher_template" : "",
										"assistshowspatchername" : 0,
										"boxes" : [ 											{
												"box" : 												{
													"fontface" : 0,
													"fontsize" : 12.0,
													"id" : "obj-8",
													"linecount" : 11,
													"maxclass" : "o.display",
													"numinlets" : 1,
													"numoutlets" : 1,
													"outlettype" : [ "" ],
													"patching_rect" : [ 320.600002944469452, 297.600004434585571, 396.400003671646118, 170.0 ],
													"text" : "/fund : 73.,\n/partials : 13,\n/harmonicity : 1,\n/amp_curve : 1.5,\n/indices : [1, 2, 3, 4, 5, 6, 7, 8, 9, 10, 11, 12, 13],\n/freqs : [73., 146., 219., 292., 365., 438., 511., 584., 657., 730., 803., 876., 949.],\n/amps : [0.483527, 0.170953, 0.0930548, 0.0604409, 0.043248, 0.0328998, 0.026108, 0.0213691, 0.0179084, 0.0152905, 0.0132535, 0.0116318, 0.0103159]"
												}

											}
, 											{
												"box" : 												{
													"fontface" : 0,
													"fontsize" : 12.0,
													"id" : "obj-6",
													"linecount" : 7,
													"maxclass" : "o.expr.codebox",
													"numinlets" : 1,
													"numoutlets" : 2,
													"outlettype" : [ "FullPacket", "FullPacket" ],
													"patching_rect" : [ 123.0, 157.600002348423004, 335.0, 114.0 ],
													"text" : "/indices = aseq(1, /partials),\n\n/freqs = /fund * pow(/indices, /harmonicity),\n\n/amps = 1. / pow(/indices, /amp_curve),\n\n/amps /= sum(/amps)"
												}

											}
, 											{
												"box" : 												{
													"comment" : "",
													"id" : "obj-4",
													"index" : 1,
													"maxclass" : "outlet",
													"numinlets" : 1,
													"numoutlets" : 0,
													"patching_rect" : [ 123.0, 420.000006258487701, 30.0, 30.0 ]
												}

											}
, 											{
												"box" : 												{
													"comment" : "",
													"id" : "obj-3",
													"index" : 1,
													"maxclass" : "inlet",
													"numinlets" : 0,
													"numoutlets" : 1,
													"outlettype" : [ "FullPacket" ],
													"patching_rect" : [ 123.0, 80.0, 30.0, 30.0 ]
												}

											}
 ],
										"lines" : [ 											{
												"patchline" : 												{
													"destination" : [ "obj-6", 0 ],
													"source" : [ "obj-3", 0 ]
												}

											}
, 											{
												"patchline" : 												{
													"destination" : [ "obj-4", 0 ],
													"order" : 1,
													"source" : [ "obj-6", 0 ]
												}

											}
, 											{
												"patchline" : 												{
													"destination" : [ "obj-8", 0 ],
													"order" : 0,
													"source" : [ "obj-6", 0 ]
												}

											}
 ]
									}
,
									"patching_rect" : [ 74.399999976158142, 619.400000333786011, 73.0, 22.0 ],
									"saved_object_attributes" : 									{
										"description" : "",
										"digest" : "",
										"globalpatchername" : "",
										"tags" : ""
									}
,
									"text" : "p freq-amps"
								}

							}
, 							{
								"box" : 								{
									"id" : "obj-41",
									"maxclass" : "button",
									"numinlets" : 1,
									"numoutlets" : 1,
									"outlettype" : [ "bang" ],
									"parameter_enable" : 0,
									"patching_rect" : [ 50.0, 570.599999606609344, 22.399999976158142, 22.399999976158142 ]
								}

							}
, 							{
								"box" : 								{
									"format" : 6,
									"id" : "obj-42",
									"maxclass" : "flonum",
									"numinlets" : 1,
									"numoutlets" : 2,
									"outlettype" : [ "", "bang" ],
									"parameter_enable" : 0,
									"patching_rect" : [ 378.399999976158142, 540.199999511241913, 50.0, 22.0 ]
								}

							}
, 							{
								"box" : 								{
									"format" : 6,
									"id" : "obj-44",
									"maxclass" : "flonum",
									"numinlets" : 1,
									"numoutlets" : 2,
									"outlettype" : [ "", "bang" ],
									"parameter_enable" : 0,
									"patching_rect" : [ 277.066666642824885, 540.199999511241913, 50.0, 22.0 ]
								}

							}
, 							{
								"box" : 								{
									"format" : 6,
									"id" : "obj-46",
									"maxclass" : "flonum",
									"numinlets" : 1,
									"numoutlets" : 2,
									"outlettype" : [ "", "bang" ],
									"parameter_enable" : 0,
									"patching_rect" : [ 74.399999976158142, 540.199999511241913, 50.0, 22.0 ]
								}

							}
, 							{
								"box" : 								{
									"id" : "obj-47",
									"maxclass" : "newobj",
									"numinlets" : 4,
									"numoutlets" : 1,
									"outlettype" : [ "FullPacket" ],
									"patching_rect" : [ 74.399999976158142, 570.599999606609344, 323.0, 22.0 ],
									"text" : "o.pack /fund 220 /partials 13 /harmonicity 1 /amp_curve 1.5"
								}

							}
, 							{
								"box" : 								{
									"id" : "obj-51",
									"maxclass" : "newobj",
									"numinlets" : 1,
									"numoutlets" : 1,
									"outlettype" : [ "signal" ],
									"patching_rect" : [ 74.399999976158142, 661.200002014636993, 192.0, 22.0 ],
									"text" : "poly~ poly_sinusoids 13 @target 0"
								}

							}
, 							{
								"box" : 								{
									"fontface" : 0,
									"fontname" : "Arial",
									"fontsize" : 12.0,
									"id" : "obj-34",
									"maxclass" : "number~",
									"mode" : 2,
									"numinlets" : 2,
									"numoutlets" : 2,
									"outlettype" : [ "signal", "float" ],
									"patching_rect" : [ 317.999992549419403, 281.199996471405029, 56.0, 22.0 ],
									"sig" : 0.0
								}

							}
, 							{
								"box" : 								{
									"id" : "obj-56",
									"maxclass" : "newobj",
									"numinlets" : 1,
									"numoutlets" : 1,
									"outlettype" : [ "" ],
									"patching_rect" : [ 570.999999976158051, 175.0, 100.0, 22.0 ],
									"text" : "loadmess 1.8"
								}

							}
, 							{
								"box" : 								{
									"format" : 6,
									"id" : "obj-21",
									"maxclass" : "flonum",
									"numinlets" : 1,
									"numoutlets" : 2,
									"outlettype" : [ "", "bang" ],
									"parameter_enable" : 0,
									"patching_rect" : [ 570.999999976158051, 210.100001394748688, 50.0, 22.0 ]
								}

							}
, 							{
								"box" : 								{
									"id" : "obj-18",
									"maxclass" : "newobj",
									"numinlets" : 6,
									"numoutlets" : 1,
									"outlettype" : [ "signal" ],
									"patching_rect" : [ 378.399999976158142, 194.400001764297485, 145.666666666666742, 22.0 ],
									"text" : "scale~ -1. 1. 8.5 15."
								}

							}
, 							{
								"box" : 								{
									"id" : "obj-17",
									"maxclass" : "newobj",
									"numinlets" : 6,
									"numoutlets" : 1,
									"outlettype" : [ "signal" ],
									"patching_rect" : [ 378.399999976158142, 264.000002801418304, 340.0, 22.0 ],
									"text" : "scale~ -1. 1. 2. 3.5"
								}

							}
, 							{
								"box" : 								{
									"id" : "obj-16",
									"maxclass" : "newobj",
									"numinlets" : 2,
									"numoutlets" : 1,
									"outlettype" : [ "signal" ],
									"patching_rect" : [ 378.399999976158142, 228.000002264976501, 60.0, 22.0 ],
									"text" : "cycle~ 10"
								}

							}
, 							{
								"box" : 								{
									"id" : "obj-20",
									"maxclass" : "number",
									"numinlets" : 1,
									"numoutlets" : 2,
									"outlettype" : [ "", "bang" ],
									"parameter_enable" : 0,
									"patching_rect" : [ 85.199993968009949, 399.00000125169754, 50.0, 22.0 ]
								}

							}
, 							{
								"box" : 								{
									"id" : "obj-2",
									"maxclass" : "kslider",
									"numinlets" : 2,
									"numoutlets" : 2,
									"outlettype" : [ "int", "int" ],
									"parameter_enable" : 0,
									"patching_rect" : [ 74.399999976158142, 344.00000125169754, 336.0, 53.0 ]
								}

							}
, 							{
								"box" : 								{
									"id" : "obj-13",
									"maxclass" : "newobj",
									"numinlets" : 1,
									"numoutlets" : 1,
									"outlettype" : [ "" ],
									"patching_rect" : [ 74.399999976158142, 434.400002598762512, 32.0, 22.0 ],
									"text" : "mtof"
								}

							}
, 							{
								"box" : 								{
									"comment" : "",
									"id" : "obj-22",
									"index" : 1,
									"maxclass" : "outlet",
									"numinlets" : 1,
									"numoutlets" : 0,
									"patching_rect" : [ 74.399983402896851, 743.200020614456207, 30.0, 30.0 ]
								}

							}
 ],
						"lines" : [ 							{
								"patchline" : 								{
									"destination" : [ "obj-18", 3 ],
									"order" : 1,
									"source" : [ "obj-100", 0 ]
								}

							}
, 							{
								"patchline" : 								{
									"destination" : [ "obj-99", 0 ],
									"order" : 0,
									"source" : [ "obj-100", 0 ]
								}

							}
, 							{
								"patchline" : 								{
									"destination" : [ "obj-46", 0 ],
									"source" : [ "obj-112", 0 ]
								}

							}
, 							{
								"patchline" : 								{
									"destination" : [ "obj-112", 0 ],
									"source" : [ "obj-114", 0 ]
								}

							}
, 							{
								"patchline" : 								{
									"destination" : [ "obj-99", 1 ],
									"source" : [ "obj-116", 0 ]
								}

							}
, 							{
								"patchline" : 								{
									"destination" : [ "obj-114", 0 ],
									"source" : [ "obj-13", 0 ]
								}

							}
, 							{
								"patchline" : 								{
									"destination" : [ "obj-17", 0 ],
									"source" : [ "obj-16", 0 ]
								}

							}
, 							{
								"patchline" : 								{
									"destination" : [ "obj-34", 0 ],
									"order" : 1,
									"source" : [ "obj-17", 0 ]
								}

							}
, 							{
								"patchline" : 								{
									"destination" : [ "obj-71", 0 ],
									"order" : 0,
									"source" : [ "obj-17", 0 ]
								}

							}
, 							{
								"patchline" : 								{
									"destination" : [ "obj-101", 0 ],
									"order" : 1,
									"source" : [ "obj-18", 0 ]
								}

							}
, 							{
								"patchline" : 								{
									"destination" : [ "obj-16", 0 ],
									"order" : 0,
									"source" : [ "obj-18", 0 ]
								}

							}
, 							{
								"patchline" : 								{
									"destination" : [ "obj-2", 0 ],
									"source" : [ "obj-19", 0 ]
								}

							}
, 							{
								"patchline" : 								{
									"destination" : [ "obj-13", 0 ],
									"order" : 1,
									"source" : [ "obj-2", 0 ]
								}

							}
, 							{
								"patchline" : 								{
									"destination" : [ "obj-20", 0 ],
									"order" : 0,
									"source" : [ "obj-2", 0 ]
								}

							}
, 							{
								"patchline" : 								{
									"destination" : [ "obj-17", 3 ],
									"source" : [ "obj-21", 0 ]
								}

							}
, 							{
								"patchline" : 								{
									"destination" : [ "obj-41", 0 ],
									"order" : 1,
									"source" : [ "obj-29", 0 ]
								}

							}
, 							{
								"patchline" : 								{
									"destination" : [ "obj-47", 1 ],
									"order" : 0,
									"source" : [ "obj-29", 0 ]
								}

							}
, 							{
								"patchline" : 								{
									"destination" : [ "obj-51", 0 ],
									"source" : [ "obj-39", 0 ]
								}

							}
, 							{
								"patchline" : 								{
									"destination" : [ "obj-2", 0 ],
									"source" : [ "obj-4", 0 ]
								}

							}
, 							{
								"patchline" : 								{
									"destination" : [ "obj-47", 0 ],
									"source" : [ "obj-41", 0 ]
								}

							}
, 							{
								"patchline" : 								{
									"destination" : [ "obj-41", 0 ],
									"order" : 1,
									"source" : [ "obj-42", 0 ]
								}

							}
, 							{
								"patchline" : 								{
									"destination" : [ "obj-47", 3 ],
									"order" : 0,
									"source" : [ "obj-42", 0 ]
								}

							}
, 							{
								"patchline" : 								{
									"destination" : [ "obj-41", 0 ],
									"order" : 1,
									"source" : [ "obj-44", 0 ]
								}

							}
, 							{
								"patchline" : 								{
									"destination" : [ "obj-47", 2 ],
									"order" : 0,
									"source" : [ "obj-44", 0 ]
								}

							}
, 							{
								"patchline" : 								{
									"destination" : [ "obj-29", 0 ],
									"source" : [ "obj-45", 0 ]
								}

							}
, 							{
								"patchline" : 								{
									"destination" : [ "obj-47", 0 ],
									"source" : [ "obj-46", 0 ]
								}

							}
, 							{
								"patchline" : 								{
									"destination" : [ "obj-39", 0 ],
									"source" : [ "obj-47", 0 ]
								}

							}
, 							{
								"patchline" : 								{
									"destination" : [ "obj-97", 0 ],
									"source" : [ "obj-50", 0 ]
								}

							}
, 							{
								"patchline" : 								{
									"destination" : [ "obj-22", 0 ],
									"source" : [ "obj-51", 0 ]
								}

							}
, 							{
								"patchline" : 								{
									"destination" : [ "obj-21", 0 ],
									"source" : [ "obj-56", 0 ]
								}

							}
, 							{
								"patchline" : 								{
									"destination" : [ "obj-42", 0 ],
									"source" : [ "obj-71", 0 ]
								}

							}
, 							{
								"patchline" : 								{
									"destination" : [ "obj-44", 0 ],
									"source" : [ "obj-94", 0 ]
								}

							}
, 							{
								"patchline" : 								{
									"destination" : [ "obj-94", 0 ],
									"source" : [ "obj-95", 0 ]
								}

							}
, 							{
								"patchline" : 								{
									"destination" : [ "obj-95", 0 ],
									"source" : [ "obj-97", 0 ]
								}

							}
, 							{
								"patchline" : 								{
									"destination" : [ "obj-100", 0 ],
									"source" : [ "obj-98", 0 ]
								}

							}
, 							{
								"patchline" : 								{
									"destination" : [ "obj-18", 4 ],
									"source" : [ "obj-99", 0 ]
								}

							}
 ]
					}
,
					"patching_rect" : [ 622.79999190568924, 571.799997599819108, 180.0, 22.0 ],
					"saved_object_attributes" : 					{
						"description" : "",
						"digest" : "",
						"globalpatchername" : "",
						"tags" : ""
					}
,
					"text" : "p poly_sinusoids_nested_cycles"
				}

			}
, 			{
				"box" : 				{
					"id" : "obj-53",
					"maxclass" : "gain~",
					"multichannelvariant" : 0,
					"numinlets" : 1,
					"numoutlets" : 2,
					"outlettype" : [ "signal", "" ],
					"parameter_enable" : 0,
					"patching_rect" : [ 622.79999190568924, 638.599994599819183, 111.600001335144043, 24.79999828338623 ]
				}

			}
, 			{
				"box" : 				{
					"id" : "obj-69",
					"maxclass" : "spectroscope~",
					"numinlets" : 2,
					"numoutlets" : 1,
					"outlettype" : [ "" ],
					"patching_rect" : [ 778.599992573261261, 596.0, 300.0, 100.0 ]
				}

			}
, 			{
				"box" : 				{
					"id" : "obj-14",
					"maxclass" : "message",
					"numinlets" : 2,
					"numoutlets" : 1,
					"outlettype" : [ "" ],
					"patching_rect" : [ 270.0, 114.655175805091858, 103.0, 22.0 ],
					"text" : "7.6, -25.4 340000"
				}

			}
, 			{
				"box" : 				{
					"id" : "obj-12",
					"maxclass" : "newobj",
					"numinlets" : 3,
					"numoutlets" : 2,
					"outlettype" : [ "", "bang" ],
					"patching_rect" : [ 270.0, 144.655175805091858, 41.0, 22.0 ],
					"text" : "line 0."
				}

			}
, 			{
				"box" : 				{
					"id" : "obj-104",
					"maxclass" : "message",
					"numinlets" : 2,
					"numoutlets" : 1,
					"outlettype" : [ "" ],
					"patching_rect" : [ 260.0, 243.0, 83.0, 22.0 ],
					"text" : "xyz 1 0 $1 0.5"
				}

			}
, 			{
				"box" : 				{
					"hidden" : 1,
					"id" : "obj-6",
					"maxclass" : "newobj",
					"numinlets" : 1,
					"numoutlets" : 1,
					"outlettype" : [ "" ],
					"patching_rect" : [ 140.0, 760.0, 81.0, 22.0 ],
					"text" : "loadmess -18"
				}

			}
, 			{
				"box" : 				{
					"bordercode" : 0,
					"bordersize" : 30.0,
					"fontface" : 0,
					"iconoffset" : [ 70.0, 1.0 ],
					"iconsize" : 20.0,
					"iconstyle" : 4,
					"id" : "obj-1",
					"maxclass" : "icst.button",
					"numinlets" : 1,
					"numoutlets" : 2,
					"off_down_bg_color" : [ 0.0, 0.2, 1.0, 0.0 ],
					"off_down_fg_color" : [ 0.501961, 0.501961, 0.501961, 1.0 ],
					"off_down_textcolor" : [ 0.0, 0.0, 0.0, 0.501961 ],
					"off_up_bg_color" : [ 0.741176, 0.741176, 0.741176, 0.0 ],
					"off_up_fg_color" : [ 0.501961, 0.501961, 0.501961, 1.0 ],
					"off_up_textcolor" : [ 0.0, 0.0, 0.0, 0.501961 ],
					"offlabeltext" : "Audio OFF",
					"offoutputtext" : "stop",
					"on_bordercode" : 0,
					"on_bordersize" : 30.0,
					"on_borderwidth" : 1.0,
					"on_down_bg_color" : [ 1.0, 0.65098, 0.0, 1.0 ],
					"on_down_fg_color" : [ 0.490196, 0.490196, 0.490196, 1.0 ],
					"on_down_textcolor" : [ 0.0, 0.0, 0.0, 0.501961 ],
					"on_up_fg_color" : [ 0.258824, 0.258824, 0.258824, 1.0 ],
					"on_up_icon_bg_color" : [ 1.0, 0.8507524729, 0.3363121152, 1.0 ],
					"onfontstyle" : 1,
					"onlabeltext" : "Audio ON",
					"onoutputtext" : "startwindow",
					"outlettype" : [ "", "" ],
					"parameter_enable" : 0,
					"patching_rect" : [ 158.0, 935.0, 92.263152999999988, 23.324180999999953 ],
					"pviewfontsize" : 24.0,
					"textalignment" : 0,
					"textcolor" : [ 0.0, 0.0, 0.0, 0.501961 ],
					"uselabeltext" : 1,
					"useoutmessage" : 3
				}

			}
, 			{
				"box" : 				{
					"bgcolor" : [ 1.0, 0.7919917703, 0.04859926179, 1.0 ],
					"id" : "obj-9",
					"maxclass" : "comment",
					"numinlets" : 1,
					"numoutlets" : 0,
					"patching_rect" : [ 132.0, 936.0, 19.0, 20.0 ],
					"text" : "1)"
				}

			}
, 			{
				"box" : 				{
					"id" : "obj-7",
					"maxclass" : "newobj",
					"numinlets" : 1,
					"numoutlets" : 1,
					"outlettype" : [ "multichannelsignal" ],
					"patching_rect" : [ 260.0, 765.0, 120.0, 22.0 ],
					"saved_object_attributes" : 					{
						"active" : [ 1, 1 ],
						"gain" : 1.0,
						"interpolation" : 1,
						"order" : 1,
						"rotate_order" : 0
					}
,
					"text" : "mc.ambidecode~ 6 2"
				}

			}
, 			{
				"box" : 				{
					"coldcolor" : [ 0.054901960784314, 0.196078431372549, 0.407843137254902, 1.0 ],
					"hotcolor" : [ 1.0, 0.576470588235294, 0.956862745098039, 1.0 ],
					"id" : "obj-89",
					"interval" : 30,
					"lastchannelcount" : 2,
					"maxclass" : "mc.live.gain~",
					"numinlets" : 1,
					"numoutlets" : 4,
					"outlettype" : [ "multichannelsignal", "", "float", "list" ],
					"parameter_enable" : 1,
					"patching_rect" : [ 260.0, 819.0, 80.0, 114.0 ],
					"saved_attribute_attributes" : 					{
						"valueof" : 						{
							"parameter_longname" : "mc.live.gain~",
							"parameter_mmax" : 6.0,
							"parameter_mmin" : -70.0,
							"parameter_shortname" : "mc.live.gain~",
							"parameter_type" : 0,
							"parameter_unitstyle" : 4
						}

					}
,
					"showname" : 0,
					"shownumber" : 0,
					"varname" : "live.gain~[2]",
					"warmcolor" : [ 0.725490196078431, 0.949019607843137, 0.964705882352941, 1.0 ]
				}

			}
, 			{
				"box" : 				{
					"id" : "obj-61",
					"maxclass" : "newobj",
					"numinlets" : 18,
					"numoutlets" : 1,
					"outlettype" : [ "multichannelsignal" ],
					"patching_rect" : [ 260.0, 714.0, 579.690896581519837, 22.0 ],
					"saved_object_attributes" : 					{
						"active" : [ 1, 1, 1, 1, 1, 1, 1, 1, 1, 1, 1, 1, 1, 1, 1, 1, 1, 1 ],
						"center_att_db" : 6.0,
						"center_curve" : 0.2,
						"center_size" : 1.0,
						"db_unit" : 1.5,
						"dist_att" : 1.0,
						"distance_mode" : 1,
						"exp_curve" : 1.0,
						"exp_cutoff_dist" : 30.0,
						"order" : 1,
						"rotate_order" : 0
					}
,
					"text" : "mc.ambiencode~ 1 18"
				}

			}
, 			{
				"box" : 				{
					"border_color" : [ 0.501960784313725, 0.501960784313725, 0.501960784313725, 1.0 ],
					"constrain" : 4,
					"coord_color" : [ 0.807843137254902, 0.898039215686275, 0.909803921568627, 1.0 ],
					"grid_color" : [ 1.0, 1.0, 1.0, 0.149019607843137 ],
					"grid_display" : 1,
					"grid_extend" : 1,
					"hi_border_color" : [ 0.843137, 0.639216, 0.388235, 1.0 ],
					"id" : "obj-113",
					"label_color" : [ 1.0, 1.0, 1.0, 0.94 ],
					"maxclass" : "ambimonitor",
					"number_font_size" : 11.0,
					"number_font_style" : 1,
					"numbers" : 1,
					"numinlets" : 1,
					"numoutlets" : 3,
					"outlettype" : [ "", "", "" ],
					"patching_rect" : [ 260.0, 416.600006000000008, 241.0, 241.0 ],
					"prototypename" : "small_light_grey",
					"save_points" : 1,
					"saved_points" : [ "9", 9, -3.0, -23.600000000000001, 0.5, -172.755493147558809, 1.204025911759861, 23.795167576632025, 0, 0.0, 0.0, 0.0, 0, 0, "8", 8, 0.0, -23.600000000000001, 0.5, 180.0, 1.213712057753809, 23.605296015936762, 0, 0.0, 0.0, 0.0, 0, 0, "14", 14, 5.5, -23.600000000000001, 0.5, 166.881328203487726, 1.182045772754437, 24.237574136039274, 0, 0.0, 0.0, 0.0, 0, 0, "13", 13, 0.0, -33.0, 0.5, 180.0, 0.868051449745543, 33.0037876614185, 0, 0.0, 0.0, 0.0, 0, 0, "12", 12, -3.0, -30.0, 0.5, -174.289406862500357, 0.950103429155814, 30.153772566629204, 0, 0.0, 0.0, 0.0, 0, 0, "11", 11, 0.0, -29.0, 0.5, 180.0, 0.98776039963981, 29.004310024546353, 0, 0.0, 0.0, 0.0, 0, 0, "10", 10, 0.0, -25.399999999999999, 0.5, 180.0, 1.127724025858696, 25.404920783186867, 0, 0.0, 0.0, 0.0, 0, 0 ],
					"zoom_scale" : 0.414335199794489
				}

			}
 ],
		"lines" : [ 			{
				"patchline" : 				{
					"destination" : [ "obj-55", 0 ],
					"source" : [ "obj-1", 0 ]
				}

			}
, 			{
				"patchline" : 				{
					"destination" : [ "obj-113", 0 ],
					"midpoints" : [ 269.5, 276.0, 255.0, 276.0, 255.0, 402.0, 269.5, 402.0 ],
					"source" : [ "obj-104", 0 ]
				}

			}
, 			{
				"patchline" : 				{
					"destination" : [ "obj-114", 0 ],
					"hidden" : 1,
					"source" : [ "obj-109", 0 ]
				}

			}
, 			{
				"patchline" : 				{
					"destination" : [ "obj-61", 0 ],
					"source" : [ "obj-113", 0 ]
				}

			}
, 			{
				"patchline" : 				{
					"destination" : [ "obj-7", 0 ],
					"source" : [ "obj-114", 0 ]
				}

			}
, 			{
				"patchline" : 				{
					"destination" : [ "obj-43", 0 ],
					"source" : [ "obj-12", 0 ]
				}

			}
, 			{
				"patchline" : 				{
					"destination" : [ "obj-70", 0 ],
					"source" : [ "obj-12", 1 ]
				}

			}
, 			{
				"patchline" : 				{
					"destination" : [ "obj-12", 0 ],
					"source" : [ "obj-14", 0 ]
				}

			}
, 			{
				"patchline" : 				{
					"destination" : [ "obj-24", 0 ],
					"source" : [ "obj-22", 0 ]
				}

			}
, 			{
				"patchline" : 				{
					"destination" : [ "obj-53", 0 ],
					"order" : 1,
					"source" : [ "obj-23", 0 ]
				}

			}
, 			{
				"patchline" : 				{
					"destination" : [ "obj-69", 0 ],
					"order" : 0,
					"source" : [ "obj-23", 0 ]
				}

			}
, 			{
				"patchline" : 				{
					"destination" : [ "obj-40", 0 ],
					"source" : [ "obj-24", 0 ]
				}

			}
, 			{
				"patchline" : 				{
					"destination" : [ "obj-26", 0 ],
					"source" : [ "obj-25", 0 ]
				}

			}
, 			{
				"patchline" : 				{
					"destination" : [ "obj-42", 0 ],
					"source" : [ "obj-26", 0 ]
				}

			}
, 			{
				"patchline" : 				{
					"destination" : [ "obj-113", 0 ],
					"midpoints" : [ 385.5, 276.0, 372.0, 276.0, 372.0, 402.0, 269.5, 402.0 ],
					"source" : [ "obj-27", 0 ]
				}

			}
, 			{
				"patchline" : 				{
					"destination" : [ "obj-113", 0 ],
					"midpoints" : [ 483.5, 276.0, 372.0, 276.0, 372.0, 402.0, 269.5, 402.0 ],
					"source" : [ "obj-28", 0 ]
				}

			}
, 			{
				"patchline" : 				{
					"destination" : [ "obj-113", 0 ],
					"midpoints" : [ 579.5, 276.0, 372.0, 276.0, 372.0, 402.0, 269.5, 402.0 ],
					"source" : [ "obj-29", 0 ]
				}

			}
, 			{
				"patchline" : 				{
					"destination" : [ "obj-113", 0 ],
					"midpoints" : [ 676.5, 276.0, 372.0, 276.0, 372.0, 402.0, 269.5, 402.0 ],
					"source" : [ "obj-30", 0 ]
				}

			}
, 			{
				"patchline" : 				{
					"destination" : [ "obj-113", 0 ],
					"midpoints" : [ 769.5, 276.0, 372.0, 276.0, 372.0, 402.0, 269.5, 402.0 ],
					"source" : [ "obj-31", 0 ]
				}

			}
, 			{
				"patchline" : 				{
					"destination" : [ "obj-113", 0 ],
					"midpoints" : [ 868.5, 276.0, 372.0, 276.0, 372.0, 402.0, 269.5, 402.0 ],
					"source" : [ "obj-32", 0 ]
				}

			}
, 			{
				"patchline" : 				{
					"destination" : [ "obj-113", 0 ],
					"midpoints" : [ 967.5, 276.0, 372.0, 276.0, 372.0, 402.0, 269.5, 402.0 ],
					"source" : [ "obj-33", 0 ]
				}

			}
, 			{
				"patchline" : 				{
					"destination" : [ "obj-48", 0 ],
					"source" : [ "obj-34", 0 ]
				}

			}
, 			{
				"patchline" : 				{
					"destination" : [ "obj-23", 0 ],
					"source" : [ "obj-35", 0 ]
				}

			}
, 			{
				"patchline" : 				{
					"destination" : [ "obj-113", 0 ],
					"midpoints" : [ 977.5, 402.0, 269.5, 402.0 ],
					"source" : [ "obj-36", 0 ]
				}

			}
, 			{
				"patchline" : 				{
					"destination" : [ "obj-113", 0 ],
					"midpoints" : [ 878.5, 402.0, 269.5, 402.0 ],
					"source" : [ "obj-37", 0 ]
				}

			}
, 			{
				"patchline" : 				{
					"destination" : [ "obj-113", 0 ],
					"midpoints" : [ 779.5, 402.0, 269.5, 402.0 ],
					"source" : [ "obj-38", 0 ]
				}

			}
, 			{
				"patchline" : 				{
					"destination" : [ "obj-113", 0 ],
					"midpoints" : [ 686.5, 402.0, 269.5, 402.0 ],
					"source" : [ "obj-39", 0 ]
				}

			}
, 			{
				"patchline" : 				{
					"destination" : [ "obj-113", 0 ],
					"midpoints" : [ 589.5, 402.0, 269.5, 402.0 ],
					"source" : [ "obj-40", 0 ]
				}

			}
, 			{
				"patchline" : 				{
					"destination" : [ "obj-113", 0 ],
					"midpoints" : [ 493.5, 402.0, 269.5, 402.0 ],
					"source" : [ "obj-41", 0 ]
				}

			}
, 			{
				"patchline" : 				{
					"destination" : [ "obj-113", 0 ],
					"midpoints" : [ 395.5, 402.0, 269.5, 402.0 ],
					"source" : [ "obj-42", 0 ]
				}

			}
, 			{
				"patchline" : 				{
					"destination" : [ "obj-113", 0 ],
					"midpoints" : [ 279.5, 402.0, 269.5, 402.0 ],
					"source" : [ "obj-43", 0 ]
				}

			}
, 			{
				"patchline" : 				{
					"destination" : [ "obj-113", 0 ],
					"midpoints" : [ 1070.5, 402.0, 269.5, 402.0 ],
					"source" : [ "obj-44", 0 ]
				}

			}
, 			{
				"patchline" : 				{
					"destination" : [ "obj-113", 0 ],
					"midpoints" : [ 1060.5, 276.0, 372.0, 276.0, 372.0, 402.0, 269.5, 402.0 ],
					"source" : [ "obj-45", 0 ]
				}

			}
, 			{
				"patchline" : 				{
					"destination" : [ "obj-114", 0 ],
					"source" : [ "obj-46", 0 ]
				}

			}
, 			{
				"patchline" : 				{
					"destination" : [ "obj-114", 0 ],
					"source" : [ "obj-47", 0 ]
				}

			}
, 			{
				"patchline" : 				{
					"destination" : [ "obj-41", 0 ],
					"source" : [ "obj-48", 0 ]
				}

			}
, 			{
				"patchline" : 				{
					"destination" : [ "obj-52", 0 ],
					"source" : [ "obj-49", 0 ]
				}

			}
, 			{
				"patchline" : 				{
					"destination" : [ "obj-114", 0 ],
					"source" : [ "obj-50", 0 ]
				}

			}
, 			{
				"patchline" : 				{
					"destination" : [ "obj-55", 1 ],
					"order" : 0,
					"source" : [ "obj-51", 1 ]
				}

			}
, 			{
				"patchline" : 				{
					"destination" : [ "obj-55", 0 ],
					"order" : 0,
					"source" : [ "obj-51", 0 ]
				}

			}
, 			{
				"patchline" : 				{
					"destination" : [ "obj-65", 1 ],
					"order" : 1,
					"source" : [ "obj-51", 1 ]
				}

			}
, 			{
				"patchline" : 				{
					"destination" : [ "obj-65", 0 ],
					"order" : 1,
					"source" : [ "obj-51", 0 ]
				}

			}
, 			{
				"patchline" : 				{
					"destination" : [ "obj-33", 0 ],
					"source" : [ "obj-52", 0 ]
				}

			}
, 			{
				"patchline" : 				{
					"destination" : [ "obj-61", 13 ],
					"order" : 0,
					"source" : [ "obj-53", 0 ]
				}

			}
, 			{
				"patchline" : 				{
					"destination" : [ "obj-61", 12 ],
					"order" : 1,
					"source" : [ "obj-53", 0 ]
				}

			}
, 			{
				"patchline" : 				{
					"destination" : [ "obj-61", 11 ],
					"order" : 2,
					"source" : [ "obj-53", 0 ]
				}

			}
, 			{
				"patchline" : 				{
					"destination" : [ "obj-61", 10 ],
					"order" : 3,
					"source" : [ "obj-53", 0 ]
				}

			}
, 			{
				"patchline" : 				{
					"destination" : [ "obj-61", 9 ],
					"order" : 4,
					"source" : [ "obj-53", 0 ]
				}

			}
, 			{
				"patchline" : 				{
					"destination" : [ "obj-61", 8 ],
					"order" : 5,
					"source" : [ "obj-53", 0 ]
				}

			}
, 			{
				"patchline" : 				{
					"destination" : [ "obj-61", 7 ],
					"order" : 6,
					"source" : [ "obj-53", 0 ]
				}

			}
, 			{
				"patchline" : 				{
					"destination" : [ "obj-57", 0 ],
					"source" : [ "obj-56", 0 ]
				}

			}
, 			{
				"patchline" : 				{
					"destination" : [ "obj-45", 0 ],
					"source" : [ "obj-57", 0 ]
				}

			}
, 			{
				"patchline" : 				{
					"destination" : [ "obj-59", 0 ],
					"source" : [ "obj-58", 0 ]
				}

			}
, 			{
				"patchline" : 				{
					"destination" : [ "obj-39", 0 ],
					"source" : [ "obj-59", 0 ]
				}

			}
, 			{
				"patchline" : 				{
					"destination" : [ "obj-89", 0 ],
					"hidden" : 1,
					"source" : [ "obj-6", 0 ]
				}

			}
, 			{
				"patchline" : 				{
					"destination" : [ "obj-7", 0 ],
					"source" : [ "obj-61", 0 ]
				}

			}
, 			{
				"patchline" : 				{
					"destination" : [ "obj-14", 0 ],
					"order" : 6,
					"source" : [ "obj-62", 0 ]
				}

			}
, 			{
				"patchline" : 				{
					"destination" : [ "obj-22", 0 ],
					"order" : 3,
					"source" : [ "obj-62", 0 ]
				}

			}
, 			{
				"patchline" : 				{
					"destination" : [ "obj-25", 0 ],
					"order" : 5,
					"source" : [ "obj-62", 0 ]
				}

			}
, 			{
				"patchline" : 				{
					"destination" : [ "obj-34", 0 ],
					"order" : 4,
					"source" : [ "obj-62", 0 ]
				}

			}
, 			{
				"patchline" : 				{
					"destination" : [ "obj-49", 0 ],
					"order" : 1,
					"source" : [ "obj-62", 0 ]
				}

			}
, 			{
				"patchline" : 				{
					"destination" : [ "obj-56", 0 ],
					"order" : 0,
					"source" : [ "obj-62", 0 ]
				}

			}
, 			{
				"patchline" : 				{
					"destination" : [ "obj-58", 0 ],
					"order" : 2,
					"source" : [ "obj-62", 0 ]
				}

			}
, 			{
				"patchline" : 				{
					"destination" : [ "obj-70", 0 ],
					"order" : 7,
					"source" : [ "obj-62", 0 ]
				}

			}
, 			{
				"patchline" : 				{
					"destination" : [ "obj-113", 0 ],
					"source" : [ "obj-64", 0 ]
				}

			}
, 			{
				"patchline" : 				{
					"destination" : [ "obj-71", 0 ],
					"source" : [ "obj-65", 0 ]
				}

			}
, 			{
				"patchline" : 				{
					"destination" : [ "obj-65", 0 ],
					"source" : [ "obj-67", 0 ]
				}

			}
, 			{
				"patchline" : 				{
					"destination" : [ "obj-89", 0 ],
					"source" : [ "obj-7", 0 ]
				}

			}
, 			{
				"patchline" : 				{
					"destination" : [ "obj-65", 0 ],
					"source" : [ "obj-70", 0 ]
				}

			}
, 			{
				"patchline" : 				{
					"destination" : [ "obj-51", 0 ],
					"source" : [ "obj-89", 0 ]
				}

			}
 ],
		"parameters" : 		{
			"obj-89" : [ "mc.live.gain~", "mc.live.gain~", 0 ],
			"parameterbanks" : 			{
				"0" : 				{
					"index" : 0,
					"name" : "",
					"parameters" : [ "-", "-", "-", "-", "-", "-", "-", "-" ]
				}

			}
,
			"inherited_shortname" : 1
		}
,
		"dependency_cache" : [ 			{
				"name" : "ambimonitor.mxo",
				"type" : "iLaX"
			}
, 			{
				"name" : "icst.button.mxo",
				"type" : "iLaX"
			}
, 			{
				"name" : "mc.ambidecode~.mxo",
				"type" : "iLaX"
			}
, 			{
				"name" : "mc.ambiencode~.mxo",
				"type" : "iLaX"
			}
, 			{
				"name" : "o.display.mxo",
				"type" : "iLaX"
			}
, 			{
				"name" : "o.expr.codebox.mxo",
				"type" : "iLaX"
			}
, 			{
				"name" : "o.pack.mxo",
				"type" : "iLaX"
			}
, 			{
				"name" : "o.route.mxo",
				"type" : "iLaX"
			}
, 			{
				"name" : "o.union.mxo",
				"type" : "iLaX"
			}
, 			{
				"name" : "poly_sinusoids.maxpat",
				"bootpath" : "~/Documents/Max Enabled/abstractions",
				"patcherrelativepath" : "../../../../Max Enabled/abstractions",
				"type" : "JSON",
				"implicit" : 1
			}
 ],
		"autosave" : 0,
		"styles" : [ 			{
				"name" : "jasch_new",
				"default" : 				{
					"accentcolor" : [ 0.65098, 0.666667, 0.662745, 1.0 ],
					"bgcolor" : [ 0.752268, 0.752268, 0.752268, 1.0 ],
					"bgfillcolor" : 					{
						"angle" : 270.0,
						"autogradient" : 0,
						"color" : [ 0.290196, 0.309804, 0.301961, 1.0 ],
						"color1" : [ 0.851468, 0.851468, 0.851468, 1.0 ],
						"color2" : [ 0.851468, 0.851468, 0.851468, 1.0 ],
						"proportion" : 0.39,
						"type" : "gradient"
					}
,
					"clearcolor" : [ 0.65098, 0.666667, 0.662745, 0.0 ],
					"color" : [ 1.0, 0.498039, 0.0, 1.0 ],
					"elementcolor" : [ 0.451266, 0.451266, 0.451266, 1.0 ],
					"fontname" : [ "Verdana" ],
					"fontsize" : [ 10.0 ],
					"patchlinecolor" : [ 0.752941, 0.720076, 0.621482, 0.5 ],
					"selectioncolor" : [ 0.952941, 0.564706, 0.098039, 1.0 ],
					"textcolor_inverse" : [ 0.0, 0.0, 0.0, 1.0 ]
				}
,
				"parentstyle" : "",
				"multi" : 0
			}
 ]
	}

}
